<?xml version="1.0" encoding="UTF-8"?>
<svg version="1.1" xmlns="http://www.w3.org/2000/svg" width="1280" height="1280">
<path d="M0 0 C6.5204178 3.35431321 13.23117245 5.88659413 20.13037109 8.34204102 C22.89978412 9.33718388 25.65212079 10.37559522 28.40478516 11.41601562 C30.43676123 12.18300351 32.47200488 12.94076058 34.5078125 13.69750977 C36.6238626 14.49358006 38.73429956 15.30563369 40.828125 16.15844727 C48.04774438 19.02556884 55.50461946 20.59662669 63.09814453 22.14306641 C70.16531771 23.63845565 77.99651045 25.32935791 83.08984375 30.81860352 C85.5238684 34.65403629 86.31069707 37.63083011 87.15234375 42.06860352 C87.61382812 41.63547852 88.0753125 41.20235352 88.55078125 40.75610352 C93.11888052 36.85606619 96.54919132 35.11065175 102.6171875 35.46704102 C108.02066814 36.74922286 112.28573031 40.20199007 116.15234375 44.06860352 C118.14896665 44.63803928 118.14896665 44.63803928 120.40234375 45.00610352 C127.86690305 46.62362439 127.86690305 46.62362439 131.15234375 49.06860352 C132.28574681 51.54341243 133.14524932 53.98160555 133.90234375 56.59594727 C135.71208648 60.17584459 137.57625927 61.25672071 141.15234375 63.06860352 C144.54234505 63.87102404 147.94114846 64.26430544 151.40234375 64.63110352 C160.39265784 65.63942384 168.69180869 67.51149515 177.08984375 70.94360352 C177.91742188 71.28133789 178.745 71.61907227 179.59765625 71.96704102 C182.24958076 73.1105314 184.85376784 74.33496475 187.46484375 75.56860352 C192.51838702 77.91975556 197.62503914 79.47352894 203.01171875 80.88110352 C211.03383893 83.91434299 214.38640145 88.40500331 218.08984375 95.94360352 C224.22076645 107.61352182 231.48801332 113.84716004 244.15234375 118.06860352 C245.6237189 119.9262689 246.87727883 121.87646777 248.1640625 123.86547852 C253.95922559 130.28683801 261.95784786 132.60881059 269.96484375 135.19360352 C279.63017655 138.42970526 289.14572369 141.92060081 298.58984375 145.75610352 C299.68337158 146.19519043 300.77689941 146.63427734 301.90356445 147.08666992 C309.73781739 150.30210937 317.12874507 154.06853529 324.39794922 158.40966797 C333.93125289 163.99394554 344.16995904 166.46484666 354.96484375 168.38110352 C366.39035316 170.53771547 377.29345381 173.66327605 388.35595703 177.19995117 C392.08905814 178.3595787 395.85022057 179.40232333 399.6184082 180.44116211 C413.74151999 184.34601817 427.6926329 188.57070672 437.79956055 199.91796875 C444.70838511 207.19220148 453.25250646 209.07884175 462.62487793 211.68017578 C467.81122103 213.12489551 472.97001107 214.66338947 478.1328125 216.18969727 C479.20927032 216.50595062 480.28572815 216.82220398 481.39480591 217.14804077 C492.82085107 220.5219841 504.12444959 224.23127854 515.40234375 228.06860352 C516.41809479 228.4136795 517.43384583 228.75875549 518.4803772 229.11428833 C538.73759185 236.02601344 558.72191283 243.63575995 578.70703125 251.2878418 C591.88537374 256.33128865 605.06842961 261.32471339 618.40234375 265.94360352 C619.36457855 266.28207306 619.36457855 266.28207306 620.34625244 266.62738037 C622.09569471 267.24063861 623.85044131 267.83870426 625.60546875 268.43579102 C627.01554199 268.91701416 627.01554199 268.91701416 628.45410156 269.40795898 C631.43764189 270.13845664 634.09207234 270.18630626 637.15234375 270.06860352 C637.91951226 267.21782261 637.91951226 267.21782261 638.15234375 264.06860352 C636.14007327 261.45261151 633.9618576 260.37019709 630.9296875 259.18579102 C629.57085449 258.65477783 629.57085449 258.65477783 628.18457031 258.11303711 C627.16331055 257.72712402 626.14205078 257.34121094 625.08984375 256.94360352 C623.99510742 256.52546387 622.90037109 256.10732422 621.77246094 255.67651367 C607.16079727 250.19376728 592.34428891 245.27493358 577.55053711 240.31030273 C539.28593788 227.45802532 539.28593788 227.45802532 525.52734375 220.94360352 C524.55337646 220.49114258 523.57940918 220.03868164 522.57592773 219.57250977 C514.71371131 215.88696 506.9653249 211.98217064 499.21484375 208.06860352 C480.25936834 198.51849694 461.19341117 190.29044787 441.1428833 183.37316895 C418.02178827 175.38219963 395.91703805 165.16752326 373.81829834 154.73062134 C369.3068215 152.6032278 364.78020637 150.51054567 360.24609375 148.43188477 C358.9583045 147.84006926 357.67054365 147.24819192 356.3828125 146.65625 C353.96044459 145.54290028 351.53574032 144.4352381 349.109375 143.33056641 C335.24140528 136.94535106 335.24140528 136.94535106 332.91015625 132.92797852 C332.32421875 130.97485352 331.73828125 129.02172852 331.15234375 127.06860352 C333.58237145 128.14861583 335.29655561 129.2000908 337.27734375 131.00610352 C342.19461229 134.5337092 347.84853885 135.6028069 353.7265625 136.79125977 C362.65649577 138.65595015 369.88353481 141.67778196 377.68554688 146.45166016 C386.7533261 151.92644699 395.36834492 153.42860949 405.83984375 154.00610352 C419.51970297 154.99077742 430.66962911 157.46303299 442.68774414 164.20239258 C452.0099293 169.33413739 461.51691253 170.15239757 471.96484375 170.94360352 C506.96488253 173.60904614 541.78919501 185.64232902 573.4440918 200.37670898 C578.28476942 202.56243705 581.74609028 203.33723723 587.15234375 203.06860352 C590.71484375 204.44360352 590.71484375 204.44360352 594.15234375 206.06860352 C595.14234375 206.25422852 596.13234375 206.43985352 597.15234375 206.63110352 C602.06719395 208.9861359 604.27882317 213.58021187 607.15234375 218.06860352 C607.48234375 218.39860352 607.81234375 218.72860352 608.15234375 219.06860352 C609.19390625 218.97321289 610.23546875 218.87782227 611.30859375 218.77954102 C622.99251656 217.74090855 631.18844899 220.73404419 641.68188477 225.72314453 C648.39223681 228.9006051 654.91448547 231.46967893 662.08984375 233.38110352 C662.94739258 233.61095947 663.80494141 233.84081543 664.68847656 234.07763672 C666.36826755 234.52460523 668.04859547 234.96956144 669.72949219 235.41235352 C689.50800656 240.76953274 707.59287933 249.80363135 725.95370483 258.72415161 C783.11810947 286.47038875 842.53610665 310.23175361 902.00061035 332.54190063 C934.3623638 344.68930022 966.02822771 358.05019808 997.55378723 372.22494507 C1003.30397489 374.80608632 1009.06878954 377.3502001 1014.84942627 379.86239624 C1018.55418177 381.47397083 1022.2528556 383.09921543 1025.9508667 384.72619629 C1027.69082321 385.48766117 1029.43350147 386.24294102 1031.17901611 386.99157715 C1033.59313824 388.02802006 1035.99635072 389.08665547 1038.3984375 390.15063477 C1039.09947098 390.44470718 1039.80050446 390.7387796 1040.52278137 391.04176331 C1045.56877439 393.31603601 1049.1412487 396.37996371 1052.15234375 401.06860352 C1052.80748384 404.78106404 1052.66011069 406.26463919 1050.65234375 409.44360352 C1050.15734375 409.97985352 1049.66234375 410.51610352 1049.15234375 411.06860352 C1046.29597332 410.56453815 1043.89837751 409.96053278 1041.21484375 408.81860352 C1038.04904814 407.72585475 1038.04904814 407.72585475 1034.77734375 409.44360352 C1033.47796875 410.24797852 1033.47796875 410.24797852 1032.15234375 411.06860352 C1035.62349912 413.38270709 1039.21895873 414.6652211 1043.109375 416.08032227 C1044.71327694 416.67889753 1046.31678042 417.27854134 1047.91992188 417.87915039 C1050.4376611 418.81929249 1052.95690864 419.75322774 1055.48364258 420.66894531 C1057.92893473 421.55785922 1060.36307026 422.4729949 1062.796875 423.39282227 C1063.54395218 423.65665207 1064.29102936 423.92048187 1065.06074524 424.19230652 C1070.2351885 426.18243751 1074.54770823 428.99943438 1077.15234375 434.06860352 C1076.86985684 436.1955664 1076.68682088 437.53412638 1075.15234375 439.06860352 C1072.59671004 439.14072016 1070.05573922 439.06494068 1067.5 439.00610352 C1065.12988968 438.90347558 1065.12988968 438.90347558 1063.15234375 440.06860352 C1063.48234375 441.71860352 1063.81234375 443.36860352 1064.15234375 445.06860352 C1066.21386764 445.71754588 1068.27660633 446.36262991 1070.33984375 447.00610352 C1071.48839844 447.36575195 1072.63695312 447.72540039 1073.8203125 448.09594727 C1076.59587381 448.90616387 1079.30921923 449.55994659 1082.15234375 450.06860352 C1079.15234375 452.06860352 1079.15234375 452.06860352 1077.15234375 452.81860352 C1074.18620555 454.67243989 1073.3742072 456.8531734 1072.15234375 460.06860352 C1072.18479442 462.13193251 1072.18479442 462.13193251 1073.15234375 464.06860352 C1075.41062286 465.73776634 1077.77018938 467.03710052 1080.21875 468.40844727 C1082.15234375 470.06860352 1082.15234375 470.06860352 1082.5546875 472.58422852 C1082.01341268 475.92646916 1080.40196277 477.60808271 1078.15234375 480.06860352 C1079.1555854 482.81041734 1079.72783099 483.86298015 1082.40234375 485.15844727 C1083.30984375 485.43817383 1084.21734375 485.71790039 1085.15234375 486.00610352 C1089.10781335 487.33326766 1092.89018665 488.75944856 1096.65234375 490.56860352 C1097.44640625 490.95016602 1098.24046875 491.33172852 1099.05859375 491.72485352 C1101.43409606 493.24942963 1102.7034632 494.65380261 1104.15234375 497.06860352 C1104.15234375 498.05860352 1104.15234375 499.04860352 1104.15234375 500.06860352 C1096.79782523 502.52010969 1090.77527807 501.20185374 1083.77734375 498.19360352 C1071.43615067 492.92735166 1059.40476909 492.4687569 1046.15234375 493.06860352 C1045.49234375 493.39860352 1044.83234375 493.72860352 1044.15234375 494.06860352 C1045.51353106 497.81019227 1047.20576372 500.91768702 1049.46484375 504.19360352 C1050.03847656 505.04180664 1050.61210938 505.89000977 1051.203125 506.76391602 C1054.46914982 510.62554857 1058.48443386 512.33480841 1063.15234375 514.06860352 C1062.1484375 515.53735352 1062.1484375 515.53735352 1060.15234375 517.06860352 C1057.40239357 517.4340454 1054.96729655 517.58976267 1052.21484375 517.56860352 C1051.04429443 517.56763672 1051.04429443 517.56763672 1049.85009766 517.56665039 C1040.28818973 517.33200234 1031.28016409 514.73644245 1022.15234375 512.06860352 C1022.29342122 513.52740461 1022.4403679 514.98563903 1022.58984375 516.44360352 C1022.67105469 517.25571289 1022.75226563 518.06782227 1022.8359375 518.90454102 C1023.04324489 521.11133157 1023.04324489 521.11133157 1024.15234375 523.06860352 C1025.35890625 523.11758789 1026.56546875 523.16657227 1027.80859375 523.21704102 C1029.42319681 523.29213883 1031.03777914 523.36768355 1032.65234375 523.44360352 C1033.44382812 523.47454102 1034.2353125 523.50547852 1035.05078125 523.53735352 C1038.98637424 523.73090727 1042.64748017 524.09561244 1046.46484375 525.09985352 C1049.43148127 525.87922439 1051.63616195 526.30132429 1054.65234375 526.19360352 C1056.38484375 526.13172852 1056.38484375 526.13172852 1058.15234375 526.06860352 C1057.83984375 528.44360352 1057.83984375 528.44360352 1057.15234375 531.06860352 C1053.87895019 533.25086589 1053.48632992 533.27882951 1049.83984375 532.75610352 C1049.04578125 532.65297852 1048.25171875 532.54985352 1047.43359375 532.44360352 C1045.5527009 532.13441565 1043.69110385 531.71018618 1041.83984375 531.25610352 C1039.0388711 530.78555863 1039.0388711 530.78555863 1036.71484375 532.69360352 C1034.88972766 534.92164257 1034.88972766 534.92164257 1035.39453125 537.38500977 C1036.21055007 540.27472588 1037.33049475 542.71889391 1038.71484375 545.38110352 C1039.39740234 546.70561523 1039.39740234 546.70561523 1040.09375 548.05688477 C1040.44308594 548.72075195 1040.79242187 549.38461914 1041.15234375 550.06860352 C1042.14234375 549.73860352 1043.13234375 549.40860352 1044.15234375 549.06860352 C1046.485342 549.02906117 1048.81942564 549.02458619 1051.15234375 549.06860352 C1047.86526805 552.88161133 1044.75506537 554.29832597 1040.15234375 556.06860352 C1041.27263392 557.5513405 1042.39872993 559.02969237 1043.52734375 560.50610352 C1044.15382813 561.32981445 1044.7803125 562.15352539 1045.42578125 563.00219727 C1046.98988279 565.15388443 1046.98988279 565.15388443 1049.15234375 566.06860352 C1050.50578612 566.11288793 1051.86124765 566.10790939 1053.21484375 566.06860352 C1054.51421875 566.06860352 1055.81359375 566.06860352 1057.15234375 566.06860352 C1057.48234375 566.39860352 1057.81234375 566.72860352 1058.15234375 567.06860352 C1057.98547196 573.53809441 1056.66841531 579.80217439 1055.15234375 586.06860352 C1052.8276217 583.21553555 1051.40151795 580.52785515 1050.15234375 577.06860352 C1047.39592959 577.56616443 1047.39592959 577.56616443 1045.15234375 579.06860352 C1041.64585685 579.56953022 1039.14641691 579.69624139 1036.0859375 577.76391602 C1034.71737496 576.6784148 1033.35530892 575.58467057 1032 574.48266602 C1029.67389378 572.7024325 1028.09917167 571.98895952 1025.15234375 572.06860352 C1019.91082164 574.1376254 1016.64607524 578.82981113 1013.15234375 583.06860352 C1014.22484375 582.59422852 1015.29734375 582.11985352 1016.40234375 581.63110352 C1018.95753163 580.50092426 1021.4270107 579.6896418 1024.15234375 579.06860352 C1024.46365234 580.01219727 1024.46365234 580.01219727 1024.78125 580.97485352 C1029.44931382 593.94386765 1037.54055511 598.87839468 1049.15234375 605.06860352 C1050.8258618 606.05709484 1052.49540949 607.05255892 1054.15234375 608.06860352 C1050.90837111 609.14992773 1050.35096281 609.00979759 1047.21875 608.16235352 C1037.80532085 606.12627884 1027.95866711 606.64881074 1018.37182617 606.53686523 C1015.72427618 606.5028455 1013.07706179 606.4578227 1010.4296875 606.41235352 C1009.63255844 606.40707642 1008.83542938 606.40179932 1008.0141449 606.3963623 C1002.51735689 606.30033658 997.47147994 605.44620588 992.15234375 604.06860352 C992.48234375 605.71860352 992.81234375 607.36860352 993.15234375 609.06860352 C994.38210938 609.08987305 994.38210938 609.08987305 995.63671875 609.11157227 C1004.39302172 609.49911199 1004.39302172 609.49911199 1007.90234375 612.13110352 C1009.66215113 616.26665087 1009.79402396 618.57684203 1009.15234375 623.06860352 C1007.33984375 625.63110352 1007.33984375 625.63110352 1004.15234375 627.06860352 C997.21208162 627.44106839 990.19538372 625.56973231 983.40185547 624.29467773 C976.80801984 623.0938468 970.1873603 622.36110458 963.52734375 621.63110352 C955.12662833 620.69636094 947.24100378 619.32524062 939.14453125 616.92016602 C935.46420751 615.87276318 931.95805854 615.37927411 928.15234375 615.06860352 C928.15234375 617.04860352 928.15234375 619.02860352 928.15234375 621.06860352 C928.77109375 620.57360352 929.38984375 620.07860352 930.02734375 619.56860352 C932.15234375 618.06860352 932.15234375 618.06860352 934.15234375 618.06860352 C934.85359375 618.83172852 935.55484375 619.59485352 936.27734375 620.38110352 C942.20446453 625.92167294 949.78844035 626.70679613 957.5168457 627.97924805 C961.09605859 628.58563114 963.95258906 629.39858541 967.15234375 631.06860352 C969.03734069 631.47653072 970.93510289 631.82848114 972.83984375 632.13110352 C978.04982009 632.96607986 978.04982009 632.96607986 979.15234375 634.06860352 C979.19315158 636.06818715 979.19488731 638.06905606 979.15234375 640.06860352 C970.33643554 644.47655762 951.67971373 638.5183021 942.15234375 637.06860352 C948.05443504 639.54989087 953.58911815 641.26406992 959.96484375 642.00610352 C970.67293795 643.34608457 980.31295524 646.88103156 989.15234375 653.06860352 C988.82234375 654.38860352 988.49234375 655.70860352 988.15234375 657.06860352 C985.46484375 657.75610352 985.46484375 657.75610352 982.15234375 658.06860352 C981.40984375 657.57360352 980.66734375 657.07860352 979.90234375 656.56860352 C975.68424512 654.26782244 971.76902207 655.32455633 967.15234375 656.06860352 C964.15234375 651.31860352 964.15234375 651.31860352 964.15234375 649.06860352 C960.50765759 652.33947571 958.85937598 654.23315318 958.15234375 659.06860352 C966.52306165 662.48274726 974.63839921 663.90537572 983.58862305 664.85302734 C989.58034882 665.56297933 993.89515022 667.08545184 999.15234375 670.06860352 C999.15234375 670.72860352 999.15234375 671.38860352 999.15234375 672.06860352 C982.15367117 672.02138498 965.74335723 668.41521653 949.15234375 665.06860352 C949.91675781 665.32963867 950.68117188 665.59067383 951.46875 665.85961914 C977.20558534 674.70181708 977.20558534 674.70181708 986.77734375 679.50610352 C987.41414063 679.82321289 988.0509375 680.14032227 988.70703125 680.46704102 C991.78867309 682.08420892 993.17592827 683.1039803 995.15234375 686.06860352 C985.44034078 685.81830977 977.20422578 683.83783771 968.08984375 680.56860352 C965.72426817 679.7447966 963.35839572 678.92184153 960.9921875 678.09985352 C959.96472412 677.7344043 958.93726074 677.36895508 957.87866211 676.99243164 C952.2004332 675.06833222 947.00863 674.1165081 941.15234375 676.06860352 C940.76627196 680.94626281 940.76627196 680.94626281 942.60546875 685.31469727 C944.8699911 689.34623327 944.91606977 693.49223197 945.23632812 698.01000977 C945.73258428 703.27333259 947.2794652 706.62289651 950.15234375 711.06860352 C950.48234375 709.41860352 950.81234375 707.76860352 951.15234375 706.06860352 C952.80234375 706.06860352 954.45234375 706.06860352 956.15234375 706.06860352 C956.3946875 706.61129883 956.63703125 707.15399414 956.88671875 707.71313477 C957.38945312 708.7862793 957.38945312 708.7862793 957.90234375 709.88110352 C958.2271875 710.58879883 958.55203125 711.29649414 958.88671875 712.02563477 C960.41673512 714.49538341 961.59507056 715.67050952 964.15234375 717.06860352 C967.23130019 717.28139191 967.23130019 717.28139191 970.52734375 717.00610352 C976.12245137 716.88135195 978.80280315 717.32597556 983.15234375 721.06860352 C988.84588513 725.18612721 995.05896476 727.89397442 1001.51708984 730.56982422 C1005.07969973 732.06519301 1008.1985957 733.55639512 1011.15234375 736.06860352 C1010.15234375 739.06860352 1010.15234375 739.06860352 1008.15234375 740.06860352 C1000.13262154 741.09580648 994.40483106 737.76023158 987.33984375 734.25610352 C984.83036931 733.04533675 982.3141972 731.84889199 979.796875 730.65454102 C979.15907104 730.3508107 978.52126709 730.04708038 977.86413574 729.73414612 C959.79186373 721.1801376 940.87072232 714.33132879 922.19335938 707.22973633 C919.26395407 706.11121902 916.34020391 704.97914084 913.41796875 703.84204102 C903.10254612 699.84188292 892.76781575 696.19168439 882.15234375 693.06860352 C882.15234375 693.72860352 882.15234375 694.38860352 882.15234375 695.06860352 C882.70467178 695.27110718 883.25699982 695.47361084 883.82606506 695.68225098 C913.51671086 706.57642548 943.0032388 717.79648944 972.15234375 730.06860352 C973.62156612 730.6864799 975.09080432 731.30431862 976.56005859 731.92211914 C978.00097882 732.52823358 979.44189681 733.1343533 980.8828125 733.74047852 C981.57868973 734.03310074 982.27456696 734.32572296 982.99153137 734.62721252 C986.30997983 736.02289616 989.62743459 737.42081727 992.94262695 738.82421875 C999.43834191 741.56225457 1005.94652928 744.15112549 1012.58984375 746.50610352 C1018.05824935 748.5147832 1023.27154272 750.55468086 1027.15234375 755.06860352 C1028.4844108 758.69478603 1028.40496877 760.29388678 1027.21484375 763.94360352 C1026.86421875 764.64485352 1026.51359375 765.34610352 1026.15234375 766.06860352 C1023.77734375 766.19360352 1023.77734375 766.19360352 1021.15234375 766.06860352 C1020.49234375 765.40860352 1019.83234375 764.74860352 1019.15234375 764.06860352 C1014.2065764 763.7442909 1010.66217951 763.81368564 1006.15234375 766.06860352 C1011.01210937 767.69396137 1015.87575114 769.30486715 1020.74859619 770.89065552 C1023.54226508 771.80456126 1026.33074493 772.7337242 1029.11865234 773.66503906 C1030.5594128 774.142957 1032.00214976 774.61495664 1033.44677734 775.08105469 C1048.80356211 780.04512753 1048.80356211 780.04512753 1054.15234375 786.06860352 C1054.81298828 788.24951172 1054.81298828 788.24951172 1055.15234375 790.06860352 C1051.83863375 792.27774352 1050.80774165 792.29341905 1046.96484375 792.19360352 C1045.61326172 792.1665332 1045.61326172 792.1665332 1044.234375 792.13891602 C1043.20376953 792.10411133 1043.20376953 792.10411133 1042.15234375 792.06860352 C1041.82234375 793.38860352 1041.49234375 794.70860352 1041.15234375 796.06860352 C1041.73242188 796.25036133 1042.3125 796.43211914 1042.91015625 796.61938477 C1047.54381668 798.11041411 1051.8499673 799.75193927 1056.15234375 802.06860352 C1055.85199219 802.5880957 1055.55164062 803.10758789 1055.2421875 803.64282227 C1052.82377701 808.01519589 1052.82377701 808.01519589 1052.15234375 812.88110352 C1054.27460663 817.52355356 1058.74188462 818.8066993 1063.27734375 820.50610352 C1064.33179688 820.89668945 1065.38625 821.28727539 1066.47265625 821.68969727 C1069.37842882 823.18494175 1070.10914468 824.03559881 1071.15234375 827.06860352 C1068.23751597 827.8782779 1066.69121158 828.28706345 1063.83984375 827.13110352 C1063.28296875 826.78047852 1062.72609375 826.42985352 1062.15234375 826.06860352 C1060.66734375 828.54360352 1060.66734375 828.54360352 1059.15234375 831.06860352 C1062.80465076 834.33645715 1066.82892611 835.38529928 1071.40234375 836.81860352 C1078.19839467 839.05681093 1083.34954682 841.56573788 1088.15234375 847.06860352 C1083.8147833 849.96031048 1080.34581861 850.4544768 1075.15234375 850.06860352 C1070.73752126 848.89669292 1066.50140936 847.1776892 1062.23046875 845.57250977 C1050.19077369 841.06173229 1037.83034628 841.85050899 1025.15234375 842.06860352 C1026.31792821 845.93547138 1027.54641241 849.07701217 1029.96484375 852.31860352 C1030.44566406 852.98375977 1030.92648437 853.64891602 1031.421875 854.33422852 C1034.97464026 857.89501356 1039.11647884 858.3431193 1043.96484375 858.69360352 C1044.94066406 858.76836914 1045.91648437 858.84313477 1046.921875 858.92016602 C1047.65792969 858.96915039 1048.39398437 859.01813477 1049.15234375 859.06860352 C1045.4996242 862.84308038 1043.72886442 864.22418162 1038.46484375 864.31860352 C1032.6696334 864.26639441 1027.37061152 863.15961434 1021.7265625 861.92407227 C1014.94644421 860.55442956 1008.03568397 859.94227322 1001.15966797 859.24707031 C994.53537316 858.52935985 988.45758707 857.23190143 982.15234375 855.06860352 C982.15234375 856.71860352 982.15234375 858.36860352 982.15234375 860.06860352 C982.73242188 860.23875977 983.3125 860.40891602 983.91015625 860.58422852 C993.31457752 863.50177175 999.11244698 868.34188873 1005.15234375 876.06860352 C1005.49394531 876.8046582 1005.83554688 877.54071289 1006.1875 878.29907227 C1006.50589844 878.88301758 1006.82429688 879.46696289 1007.15234375 880.06860352 C1008.20421875 880.33672852 1009.25609375 880.60485352 1010.33984375 880.88110352 C1015.25638343 882.41248473 1018.15181901 884.90716147 1021.15234375 889.06860352 C1021.58984375 892.00610352 1021.58984375 892.00610352 1021.15234375 894.06860352 C1020.16234375 894.39860352 1019.17234375 894.72860352 1018.15234375 895.06860352 C1019.29944383 898.50990377 1020.390884 898.99389351 1023.3515625 900.83813477 C1025.40940043 902.24424962 1027.18367338 903.82970896 1029.02734375 905.50610352 C1031.76687281 907.99706527 1034.39248188 909.82348311 1037.65234375 911.56860352 C1039.64453125 912.75219727 1039.64453125 912.75219727 1041.15234375 914.06860352 C1041.90540151 918.36103275 1041.50961262 921.3853709 1039.15234375 925.06860352 C1037.64674836 923.10478344 1036.26102692 921.28596986 1035.15234375 919.06860352 C1034.44851563 919.18719727 1033.7446875 919.30579102 1033.01953125 919.42797852 C1025.35067003 920.42913533 1019.66405559 919.42671892 1012.37890625 916.88110352 C1007.80149332 915.72843779 1004.76381285 916.18916611 1000.6328125 918.44360352 C999.87613281 918.97985352 999.11945313 919.51610352 998.33984375 920.06860352 C997.18548828 920.87297852 997.18548828 920.87297852 996.0078125 921.69360352 C994.23513871 922.93677117 994.23513871 922.93677117 993.15234375 924.06860352 C989.59912914 924.20794526 986.34918799 924.1020299 982.83984375 923.50610352 C980.19041049 922.80577194 980.19041049 922.80577194 978.15234375 924.06860352 C977.83714336 925.80804271 977.59962297 927.56187903 977.40234375 929.31860352 C976.77168701 933.21353952 976.34849953 935.5616789 973.21484375 938.06860352 C972.20421875 938.72860352 971.19359375 939.38860352 970.15234375 940.06860352 C969.13252462 941.04838356 968.12730003 942.04417184 967.15234375 943.06860352 C972.39849568 946.75948032 976.83934693 949.29866496 983.27734375 950.06860352 C989.73595843 950.86030467 993.62294111 953.53920087 998.15234375 958.06860352 C998.4254919 963.80471463 998.4254919 963.80471463 998.15234375 966.06860352 C996.15234375 968.06860352 996.15234375 968.06860352 993.51000977 968.39208984 C989.40915842 967.9970031 986.12225214 966.59833304 982.4296875 964.89282227 C980.91687323 964.22249076 979.40342061 963.55359845 977.8894043 962.88598633 C977.10512054 962.53685181 976.32083679 962.18771729 975.51278687 961.82800293 C962.18092246 955.93004455 949.96608583 951.21599857 935.28662109 950.24145508 C924.18855058 949.34264086 912.83110028 946.25572584 903.0390625 940.91625977 C900.88896261 939.79539357 900.88896261 939.79539357 897.15234375 940.06860352 C901.74960602 944.00420374 906.68208392 946.45189872 912.09375 949.09204102 C915.59348934 951.3536861 917.24194257 953.38391117 919.15234375 957.06860352 C918.82234375 958.05860352 918.49234375 959.04860352 918.15234375 960.06860352 C914.85234375 960.06860352 911.55234375 960.06860352 908.15234375 960.06860352 C908.15234375 961.05860352 908.15234375 962.04860352 908.15234375 963.06860352 C909.28671875 963.41922852 910.42109375 963.76985352 911.58984375 964.13110352 C913.5234375 964.95532227 913.5234375 964.95532227 915.15234375 966.06860352 C916.22755878 969.69745425 916.40260643 972.09030396 915.46484375 975.75610352 C914.87423001 978.14384021 914.87423001 978.14384021 916.52734375 980.00610352 C919.65933524 982.46695398 922.94416627 984.59706076 926.32421875 986.70141602 C926.9275 987.15258789 927.53078125 987.60375977 928.15234375 988.06860352 C928.15234375 988.72860352 928.15234375 989.38860352 928.15234375 990.06860352 C925.51234375 990.06860352 922.87234375 990.06860352 920.15234375 990.06860352 C920.15234375 991.71860352 920.15234375 993.36860352 920.15234375 995.06860352 C921.10496094 995.50430664 922.05757812 995.94000977 923.0390625 996.38891602 C924.30635569 996.98970686 925.57326253 997.59131315 926.83984375 998.19360352 C927.46568359 998.47719727 928.09152344 998.76079102 928.73632812 999.05297852 C933.43652667 1001.3169485 936.08721491 1003.83720194 939.15234375 1008.06860352 C939.15234375 1008.39860352 939.15234375 1008.72860352 939.15234375 1009.06860352 C931.98322364 1008.59455183 926.21500942 1006.84161662 919.58984375 1004.13110352 C911.69448645 1000.94905252 904.21486657 998.15714708 895.65234375 997.44360352 C894.79640625 997.36883789 893.94046875 997.29407227 893.05859375 997.21704102 C892.42953125 997.16805664 891.80046875 997.11907227 891.15234375 997.06860352 C891.57917614 998.65484587 892.01930533 1000.23751332 892.46484375 1001.81860352 C892.83029297 1003.14118164 892.83029297 1003.14118164 893.203125 1004.49047852 C894.21319645 1007.23388245 895.10266414 1008.98165701 897.15234375 1011.06860352 C899.63528565 1011.97421497 899.63528565 1011.97421497 902.33984375 1012.31860352 C903.24089844 1012.46813477 904.14195313 1012.61766602 905.0703125 1012.77172852 C905.75738281 1012.86969727 906.44445313 1012.96766602 907.15234375 1013.06860352 C905.84765625 1015.03735352 905.84765625 1015.03735352 904.15234375 1017.06860352 C899.80201016 1017.76465689 896.88911132 1017.08150253 893.03125 1015.19360352 C888.20103049 1012.97975291 883.3824536 1011.73450607 878.21484375 1010.56860352 C871.24387854 1008.91810895 864.70425226 1007.00616249 858.15234375 1004.06860352 C857.16234375 1003.73860352 856.17234375 1003.40860352 855.15234375 1003.06860352 C854.82234375 1004.05860352 854.49234375 1005.04860352 854.15234375 1006.06860352 C855.01859375 1006.29547852 855.88484375 1006.52235352 856.77734375 1006.75610352 C863.35249609 1009.3131072 867.01226304 1013.8127624 870.71484375 1019.63110352 C874.16991386 1025.03930807 877.8152134 1028.51051662 883.15234375 1032.06860352 C884.26954183 1035.53895504 885.06430025 1039.03908422 885.89453125 1042.58813477 C887.54834042 1047.16435827 889.93921829 1049.8143564 894.171875 1052.21313477 C894.76355469 1052.43356445 895.35523438 1052.65399414 895.96484375 1052.88110352 C897.01671875 1053.27297852 898.06859375 1053.66485352 899.15234375 1054.06860352 C898.27734375 1059.94360352 898.27734375 1059.94360352 897.15234375 1061.06860352 C890.16848315 1062.03071578 885.15200639 1060.15247824 879.02734375 1057.00610352 C873.37490797 1054.10311231 869.59817711 1052.18319726 863.15234375 1054.06860352 C862.20359375 1054.95547852 861.25484375 1055.84235352 860.27734375 1056.75610352 C857.15234375 1059.06860352 857.15234375 1059.06860352 854.91796875 1058.95141602 C853.3653579 1058.58102192 851.82363656 1058.16011477 850.30078125 1057.68188477 C847.88365973 1056.88561004 847.88365973 1056.88561004 844.15234375 1057.06860352 C844.06597656 1057.68348633 843.97960937 1058.29836914 843.890625 1058.93188477 C842.76244093 1065.42153075 842.76244093 1065.42153075 840.08984375 1068.25610352 C831.69647129 1070.57767462 823.15306988 1064.79375053 816.02734375 1060.94360352 C814.91278809 1060.35393799 813.79823242 1059.76427246 812.64990234 1059.15673828 C808.12558077 1056.75835428 803.61591524 1054.33544451 799.13671875 1051.85375977 C790.03300141 1046.84671523 780.6511335 1042.67670895 771.14233398 1038.49902344 C738.60880111 1024.17718413 738.60880111 1024.17718413 726.77734375 1014.69360352 C720.27068307 1009.67067927 712.87757993 1009.78076574 704.96289062 1009.40917969 C700.95547987 1009.22041776 697.09510813 1008.8117102 693.15234375 1008.06860352 C692.82234375 1008.72860352 692.49234375 1009.38860352 692.15234375 1010.06860352 C695.75112362 1011.56094159 699.36407739 1012.8066105 703.08984375 1013.94360352 C704.22164062 1014.29036133 705.3534375 1014.63711914 706.51953125 1014.99438477 C711.37498967 1016.4301386 716.26137074 1017.74670032 721.15625 1019.04125977 C724.06766519 1020.03956771 725.95983408 1020.91897912 728.15234375 1023.06860352 C728.15234375 1024.05860352 728.15234375 1025.04860352 728.15234375 1026.06860352 C724.52234375 1026.39860352 720.89234375 1026.72860352 717.15234375 1027.06860352 C720.23280564 1030.14906541 721.08544116 1030.51626818 725.08984375 1031.44360352 C728.70640523 1032.44145771 730.01482045 1032.93435458 732.77734375 1035.63110352 C734.15234375 1038.06860352 734.15234375 1038.06860352 734.15234375 1040.06860352 C719.37102257 1039.47407049 719.37102257 1039.47407049 713.15234375 1036.06860352 C712.82234375 1038.04860352 712.49234375 1040.02860352 712.15234375 1042.06860352 C717.01769521 1044.22058589 720.94697094 1045.24024951 726.27734375 1045.50610352 C731.50072007 1045.8296755 734.28948905 1046.51895325 738.15234375 1050.06860352 C738.48234375 1051.05860352 738.81234375 1052.04860352 739.15234375 1053.06860352 C730.49009425 1051.86726964 721.95225656 1050.28212801 713.39746094 1048.4777832 C707.99087116 1047.35850913 702.66004383 1046.50943722 697.15234375 1046.06860352 C696.82234375 1046.39860352 696.49234375 1046.72860352 696.15234375 1047.06860352 C696.79042969 1047.25036133 697.42851563 1047.43211914 698.0859375 1047.61938477 C698.91222656 1047.87075195 699.73851562 1048.12211914 700.58984375 1048.38110352 C701.41355469 1048.62473633 702.23726562 1048.86836914 703.0859375 1049.11938477 C703.76785156 1049.43262695 704.44976563 1049.74586914 705.15234375 1050.06860352 C705.48234375 1051.05860352 705.81234375 1052.04860352 706.15234375 1053.06860352 C705.16234375 1053.46047852 704.17234375 1053.85235352 703.15234375 1054.25610352 C701.37741625 1055.25043917 701.37741625 1055.25043917 700.15234375 1057.06860352 C699.60117562 1061.44012333 699.81020688 1065.68418288 700.15234375 1070.06860352 C701.10109375 1070.03379883 702.04984375 1069.99899414 703.02734375 1069.96313477 C715.90824345 1069.65403181 728.4173049 1071.25459621 741.15234375 1073.06860352 C736.76597658 1077.70647355 730.46247198 1079.20118133 724.15234375 1079.38110352 C714.75289763 1078.9299301 706.6729093 1075.90432203 698.15234375 1072.06860352 C697.49234375 1074.37860352 696.83234375 1076.68860352 696.15234375 1079.06860352 C694.50234375 1078.73860352 692.85234375 1078.40860352 691.15234375 1078.06860352 C690.82234375 1076.41860352 690.49234375 1074.76860352 690.15234375 1073.06860352 C689.71921875 1074.03797852 689.28609375 1075.00735352 688.83984375 1076.00610352 C687.15234375 1079.06860352 687.15234375 1079.06860352 684.15234375 1080.06860352 C681.55859375 1079.83422852 681.55859375 1079.83422852 678.65234375 1079.31860352 C677.69328125 1079.15875977 676.73421875 1078.99891602 675.74609375 1078.83422852 C672.93239955 1078.00368023 671.91498227 1077.36863182 670.15234375 1075.06860352 C668.96484375 1072.88110352 668.96484375 1072.88110352 668.15234375 1071.06860352 C666.23421875 1071.31610352 666.23421875 1071.31610352 664.27734375 1071.56860352 C662.56952465 1071.74045953 660.86114676 1071.90682335 659.15234375 1072.06860352 C658.3015625 1072.17172852 657.45078125 1072.27485352 656.57421875 1072.38110352 C650.16005259 1072.85331207 650.16005259 1072.85331207 647.28125 1070.61157227 C646.14185791 1069.36166177 645.01570664 1068.09956709 643.90234375 1066.82641602 C638.9208415 1061.82267491 632.27476424 1061.90805884 625.58984375 1061.88110352 C623.44363028 1061.92879715 621.29750552 1061.98621466 619.15234375 1062.06860352 C618.92231659 1061.2758049 618.69228943 1060.48300629 618.45529175 1059.66618347 C617.41352019 1056.91696636 617.41352019 1056.91696636 614.98831177 1056.06538391 C613.66015945 1055.78914436 613.66015945 1055.78914436 612.30517578 1055.50732422 C608.18344629 1054.54941623 604.18089166 1053.49332985 600.15966797 1052.17089844 C599.12002899 1051.83011765 598.08039001 1051.48933685 597.00924683 1051.13822937 C595.91951569 1050.77880753 594.82978455 1050.41938568 593.70703125 1050.04907227 C591.30482515 1049.26544704 588.90247656 1048.48225852 586.5 1047.69946289 C582.78513073 1046.48637984 579.07124822 1045.27057954 575.35986328 1044.046875 C561.38817843 1039.44616799 547.50622117 1035.12404745 533.09957886 1032.08573914 C527.51298087 1030.86184034 523.74958935 1029.44480414 519.15234375 1026.06860352 C518.16234375 1026.06860352 517.17234375 1026.06860352 516.15234375 1026.06860352 C515.49234375 1026.72860352 514.83234375 1027.38860352 514.15234375 1028.06860352 C508.52353236 1027.93770093 505.43063878 1025.40567364 501.15234375 1022.06860352 C500.59546875 1022.37797852 500.03859375 1022.68735352 499.46484375 1023.00610352 C496.85361637 1024.20585663 495.03949995 1024.93111989 492.15234375 1025.06860352 C490.82976562 1024.09407227 490.82976562 1024.09407227 489.48046875 1023.09985352 C485.5846704 1020.72213621 482.68121257 1020.63823769 478.27734375 1020.69360352 C470.39564457 1020.51965429 464.27636622 1018.59459501 457.046875 1015.62329102 C447.74494792 1011.8043859 437.92459503 1009.96690103 428.04663086 1008.34863281 C418.86722854 1006.77716184 409.92829477 1004.24455825 400.94775391 1001.81079102 C398.35999927 1001.12373651 395.76684885 1000.47715691 393.1640625 999.84985352 C382.17471546 997.17065591 371.94275532 993.39196458 361.50976562 989.04418945 C357.93093665 987.56314134 354.33278572 986.13868363 350.71484375 984.75610352 C350.0717627 984.50940918 349.42868164 984.26271484 348.76611328 984.00854492 C343.51671967 982.06208001 338.24429001 980.89527989 332.7265625 980.00219727 C330.15234375 979.06860352 330.15234375 979.06860352 328.296875 976.66625977 C327.15234375 974.06860352 327.15234375 974.06860352 327.15234375 971.06860352 C326.41113281 971.1034082 325.66992188 971.13821289 324.90625 971.17407227 C296.79432344 971.89665545 270.34327776 960.03381867 244.81054688 949.71850586 C241.38782166 948.34303236 237.95922119 946.98357682 234.52734375 945.63110352 C232.72680542 944.91664063 232.72680542 944.91664063 230.88989258 944.18774414 C222.15866526 940.77872593 213.31559459 937.7673693 204.40627289 934.85993004 C202.42754146 934.21243252 200.45057813 933.55981669 198.47418213 932.90522766 C197.48857803 932.57886149 197.48857803 932.57886149 196.48306274 932.24590206 C195.14861475 931.80385674 193.81424404 931.36157801 192.47994995 930.91906834 C188.4964357 929.60184735 184.50316153 928.3218361 180.4997282 927.06655788 C177.37001722 926.07424941 174.25696327 925.03169271 171.140625 923.99829102 C169.99093735 923.65051102 168.84124969 923.30273102 167.65672302 922.94441223 C159.95868662 920.3248642 159.95868662 920.3248642 157.52548218 916.53399658 C156.52203635 914.05445218 155.73934179 911.67550439 155.15234375 909.06860352 C149.53980154 909.63959085 149.53980154 909.63959085 144.15234375 911.19360352 C136.96507088 913.28989143 129.95824813 910.14425464 123.27734375 907.56079102 C121.85801796 907.02446045 121.85801796 907.02446045 120.41001892 906.47729492 C117.32084763 905.30783584 114.23656719 904.12604333 111.15234375 902.94360352 C109.00493731 902.12657469 106.85722863 901.31033983 104.70922852 900.49487305 C101.42244458 899.24695343 98.13593489 897.99836106 94.85072327 896.74630737 C87.78942407 894.05746531 80.71153844 891.41886896 73.6171875 888.81860352 C70.95124887 887.8369806 68.28555046 886.85470752 65.61987305 885.87237549 C63.96132487 885.26352362 62.30153061 884.65805313 60.64038086 884.05633545 C26.72251926 871.75758874 26.72251926 871.75758874 17.15234375 858.06860352 C17.755625 858.04282227 18.35890625 858.01704102 18.98046875 857.99047852 C19.7796875 857.93375977 20.57890625 857.87704102 21.40234375 857.81860352 C22.19125 857.77219727 22.98015625 857.72579102 23.79296875 857.67797852 C26.83133047 856.89323609 28.12075687 855.39840499 30.15234375 853.06860352 C28.89679688 852.75407227 27.64125 852.43954102 26.34765625 852.11547852 C3.35222139 846.26848115 3.35222139 846.26848115 -0.84765625 842.06860352 C-0.27947443 836.5004217 -0.27947443 836.5004217 1.15234375 835.06860352 C7.61809474 834.62294158 12.72716189 835.87688765 18.83984375 837.88110352 C20.62936521 838.43980083 22.41973128 838.99580016 24.2109375 839.54907227 C25.06800293 839.81510254 25.92506836 840.08113281 26.80810547 840.35522461 C33.54492651 842.40531741 40.33776304 843.81271169 47.296875 844.85375977 C75.46435711 849.09915504 102.05840068 858.537914 128.95033264 867.63830566 C133.63208051 869.2220031 138.31816317 870.78974824 143.015625 872.32641602 C151.63888791 875.14977223 160.20904328 878.06736262 168.71875 881.21704102 C169.46667313 881.49299103 170.21459625 881.76894104 170.98518372 882.05325317 C174.70057096 883.42516446 178.41134068 884.80771169 182.11547852 886.2097168 C183.47399799 886.71509341 184.83263518 887.22015375 186.19140625 887.72485352 C187.38975098 888.17666992 188.5880957 888.62848633 189.82275391 889.09399414 C193.12317512 890.06006552 195.73665997 890.26367398 199.15234375 890.06860352 C199.48615189 886.69424165 199.48615189 886.69424165 199.15234375 883.06860352 C194.53399664 878.64736429 187.77883475 877.0219158 181.90234375 874.81860352 C181.25475098 874.57394348 180.6071582 874.32928345 179.93994141 874.07720947 C169.6272868 870.1928565 159.24443414 866.85627391 148.62451172 863.90332031 C126.81748351 857.77009363 105.48332798 850.50478751 84.22442627 842.71856689 C79.03081306 840.81815478 73.83246761 838.93068354 68.63482285 837.04133224 C67.36458382 836.57939282 66.09447424 836.11709728 64.82449722 835.65443802 C56.47820778 832.61386751 48.11220298 829.64080035 39.71484375 826.74438477 C29.8815787 823.35253604 20.17541773 819.70876884 10.48046875 815.93969727 C2.79097759 812.9815449 -4.94105472 810.3856884 -12.84765625 808.06860352 C-12.84765625 807.40860352 -12.84765625 806.74860352 -12.84765625 806.06860352 C-11.89052734 805.7959668 -11.89052734 805.7959668 -10.9140625 805.51782227 C-10.08777344 805.26645508 -9.26148438 805.01508789 -8.41015625 804.75610352 C-7.58644531 804.5124707 -6.76273438 804.26883789 -5.9140625 804.01782227 C-5.23214844 803.70458008 -4.55023438 803.39133789 -3.84765625 803.06860352 C-3.51765625 802.07860352 -3.18765625 801.08860352 -2.84765625 800.06860352 C-5.83328764 796.63017495 -8.05105266 795.43280324 -12.47265625 794.44360352 C-17.65321181 793.26304796 -17.65321181 793.26304796 -19.84765625 791.06860352 C-19.27947443 785.5004217 -19.27947443 785.5004217 -17.84765625 784.06860352 C-12.58776153 783.54261404 -10.11122334 784.45041267 -5.71875 787.24829102 C-2.77722889 788.53789317 -0.34158136 787.89533247 2.75 787.36157227 C5.4208771 787.03585555 7.73558149 787.23971605 10.40234375 787.56860352 C13.90163134 787.99920121 16.7207616 788.09807816 20.15234375 787.06860352 C20.72956934 778.70722438 20.72956934 778.70722438 18.15234375 771.06860352 C14.90104384 769.65288849 11.61657044 768.7972416 8.15234375 768.06860352 C8.15234375 767.73860352 8.15234375 767.40860352 8.15234375 767.06860352 C12.81135683 767.04364589 17.47032989 767.0256231 22.12939453 767.01367188 C23.71013061 767.00868279 25.29086216 767.00188914 26.87158203 766.99316406 C35.37153107 766.94746541 43.7034389 766.99344228 52.15234375 768.06860352 C52.15234375 766.74860352 52.15234375 765.42860352 52.15234375 764.06860352 C51.10046875 763.84172852 50.04859375 763.61485352 48.96484375 763.38110352 C42.89807035 761.59389772 40.18547363 757.14368993 36.83984375 752.06860352 C33.61811173 747.31406508 30.27301702 744.59568903 25.15234375 742.06860352 C25.28253906 741.39313477 25.41273438 740.71766602 25.546875 740.02172852 C25.96617921 737.30996671 26.26054692 734.81263597 26.15234375 732.06860352 C24.00563687 729.58451651 24.00563687 729.58451651 21.15234375 728.06860352 C20.67796875 727.34672852 20.20359375 726.62485352 19.71484375 725.88110352 C17.49963238 723.31145832 15.43289705 723.36020825 12.15234375 723.06860352 C12.15234375 720.42860352 12.15234375 717.78860352 12.15234375 715.06860352 C14.90186068 714.84648097 17.65099987 714.64044763 20.40234375 714.44360352 C21.17964844 714.37915039 21.95695313 714.31469727 22.7578125 714.24829102 C26.84918342 713.96853916 29.5731032 713.80436375 33.15234375 716.06860352 C38.77412619 715.78030698 41.88362758 712.36903759 45.65234375 708.50610352 C50.23378599 704.03919733 53.77954844 702.69338737 60.15234375 702.06860352 C60.11753906 701.32094727 60.08273438 700.57329102 60.046875 699.80297852 C60.01980469 698.81813477 59.99273437 697.83329102 59.96484375 696.81860352 C59.93003906 695.84407227 59.89523438 694.86954102 59.859375 693.86547852 C60.20416471 690.57388612 60.88238166 689.43812535 63.15234375 687.06860352 C71.10642644 685.04891204 79.17061928 688.39265825 86.54602051 691.11364746 C96.19055362 694.65695039 105.7188935 697.7311078 115.90234375 699.31860352 C131.67397281 701.8294171 145.50479421 707.47194499 160.02099609 714.03515625 C165.97409649 716.72050726 171.90510151 719.10737535 178.08984375 721.19360352 C185.25074206 723.76822419 189.99535938 727.55451636 195.15234375 733.06860352 C196.15012892 734.07081345 197.14918422 735.07177306 198.15234375 736.06860352 C200.00321962 732.94525049 200.85775423 730.68383224 200.15234375 727.06860352 C195.44069151 722.53963246 190.12266944 719.66581887 184.33984375 716.69360352 C183.34992432 716.18031494 182.36000488 715.66702637 181.34008789 715.13818359 C172.02089869 710.37879888 162.51084884 706.07483964 152.96136475 701.80422974 C143.60273357 697.61755791 134.39204549 693.23991308 125.27133179 688.55828857 C111.64202181 681.56300695 97.72827959 675.48317717 83.54418945 669.69775391 C75.31164157 666.32734829 67.26441053 662.77873695 59.35794067 658.69300842 C54.72953309 656.30416395 50.18506769 654.39405358 45.15234375 653.06860352 C44.38792969 652.8662207 43.62351563 652.66383789 42.8359375 652.45532227 C40.946596 651.972308 39.05015707 651.51717757 37.15234375 651.06860352 C38.61620485 646.67702022 41.13065713 646.18912919 45.15234375 644.06860352 C44.9114284 639.97304253 44.62441724 637.65160137 42.0078125 634.42016602 C38.73873134 631.72798153 36.80066097 631.24478806 32.65234375 630.63110352 C25.08092862 629.25448258 18.98592217 626.5762044 12.15234375 623.06860352 C12.15234375 622.40860352 12.15234375 621.74860352 12.15234375 621.06860352 C17.52866086 619.62617697 20.1690983 620.89409641 25.15234375 623.06860352 C27.81355125 622.71917221 27.81355125 622.71917221 30.15234375 622.06860352 C30.22582031 620.91231445 30.22582031 620.91231445 30.30078125 619.73266602 C30.41292969 618.22833008 30.41292969 618.22833008 30.52734375 616.69360352 C30.59695312 615.69586914 30.6665625 614.69813477 30.73828125 613.67016602 C31.15234375 611.06860352 31.15234375 611.06860352 33.15234375 609.06860352 C38.7301564 608.28770975 41.43352914 609.60967773 45.84375 612.62719727 C52.0503466 616.50238195 58.91723878 619.08102242 66.15234375 620.06860352 C66.84016735 617.71492639 66.84016735 617.71492639 67.15234375 615.06860352 C64.5948648 611.23238509 62.88829233 611.09193092 58.52734375 609.75610352 C53.72405808 608.25718116 49.02111965 606.65825385 44.3553009 604.77262878 C38.3971832 602.39556816 32.86184095 600.72186925 26.46875 599.81079102 C16.902902 598.27880569 7.9091294 595.34982188 -1.25119019 592.25799561 C-4.09552032 591.2982349 -6.9445418 590.35373106 -9.79516602 589.4128418 C-15.81973701 587.42187965 -21.83787606 585.41194574 -27.85424805 583.3963623 C-39.0282745 579.65418221 -49.96923732 576.34037177 -61.59741211 574.30834961 C-65.25819616 573.66261902 -67.71314935 573.15827478 -70.84765625 571.06860352 C-69.84765625 568.06860352 -69.84765625 568.06860352 -68.03515625 566.97094727 C-67.31328125 566.65254883 -66.59140625 566.33415039 -65.84765625 566.00610352 C-62.69618665 564.74630275 -62.69618665 564.74630275 -60.84765625 562.06860352 C-62.56637039 556.91246109 -65.15862403 552.92776951 -69.84765625 550.06860352 C-72.29115389 549.2308329 -74.35565249 549.04737258 -76.9296875 549.15844727 C-83.45381571 549.42194194 -88.59596593 548.09453944 -94.7734375 546.02563477 C-98.50583771 544.86370586 -101.9617615 544.37337957 -105.84765625 544.06860352 C-104.47782122 540.90744576 -103.85859245 540.07589432 -100.84765625 538.06860352 C-97.87197108 538.32185332 -95.54133537 538.68819883 -92.91015625 540.13110352 C-89.86798818 541.51390718 -87.13822462 541.2548621 -83.84765625 541.06860352 C-83.51765625 540.73860352 -83.18765625 540.40860352 -82.84765625 540.06860352 C-83.1124623 536.49828741 -83.49939561 532.94790412 -83.88671875 529.38891602 C-83.84765625 526.06860352 -83.84765625 526.06860352 -82.6640625 524.19750977 C-80.49728586 522.85084643 -78.66430164 522.35289902 -76.16015625 521.88110352 C-74.94779297 521.64327148 -74.94779297 521.64327148 -73.7109375 521.40063477 C-73.09605469 521.29106445 -72.48117188 521.18149414 -71.84765625 521.06860352 C-72.32710255 525.28773098 -73.01390744 527.8652353 -75.84765625 531.06860352 C-75.00203125 530.57360352 -74.15640625 530.07860352 -73.28515625 529.56860352 C-64.9002206 525.98966757 -54.3201011 527.25799284 -45.99609375 530.41235352 C-43.52738653 531.16643136 -41.41454405 531.176683 -38.84765625 531.06860352 C-37.72007536 527.68586086 -38.03015363 526.30082129 -38.78515625 522.88110352 C-38.97980469 521.98004883 -39.17445312 521.07899414 -39.375 520.15063477 C-39.53097656 519.46356445 -39.68695313 518.77649414 -39.84765625 518.06860352 C-40.46253906 518.01961914 -41.07742187 517.97063477 -41.7109375 517.92016602 C-42.51917969 517.84540039 -43.32742187 517.77063477 -44.16015625 517.69360352 C-45.36091797 517.58918945 -45.36091797 517.58918945 -46.5859375 517.48266602 C-48.84765625 517.06860352 -48.84765625 517.06860352 -51.84765625 515.06860352 C-50.85765625 511.43860352 -49.86765625 507.80860352 -48.84765625 504.06860352 C-50.39453125 504.19235352 -50.39453125 504.19235352 -51.97265625 504.31860352 C-57.34634126 503.97191416 -59.87639718 501.66007873 -63.9765625 498.34985352 C-68.96200949 494.30151272 -68.96200949 494.30151272 -74.66015625 491.44360352 C-78.87360905 489.62603564 -80.82481207 487.11429188 -82.84765625 483.06860352 C-82.88764825 481.0690034 -82.89112424 479.06813109 -82.84765625 477.06860352 C-75.11558625 476.84803733 -67.58763488 477.05152299 -59.91015625 477.94360352 C-59.21349854 478.0220752 -58.51684082 478.10054687 -57.79907227 478.18139648 C-53.32447809 478.73904834 -49.16510148 479.79564669 -44.84765625 481.06860352 C-42.0552158 481.23788894 -42.0552158 481.23788894 -39.84765625 481.06860352 C-39.51765625 480.07860352 -39.18765625 479.08860352 -38.84765625 478.06860352 C-41.1173524 476.93375544 -42.64008486 476.90434301 -45.16015625 476.75610352 C-49.46512883 476.32629949 -51.77012996 475.2423025 -54.84765625 472.06860352 C-56.32597885 469.11195832 -55.90798408 466.32630615 -55.84765625 463.06860352 C-50.4886441 460.2104637 -44.77730366 459.98853692 -38.96630859 461.58569336 C-35.96203219 462.54215394 -32.98048777 463.56077897 -29.99780273 464.58227539 C-21.73842872 467.31034528 -13.3596163 468.71154885 -4.79858398 470.1574707 C3.00706213 471.52810995 10.31913107 473.43247965 17.68579102 476.36547852 C20.95362076 477.61632244 22.70141017 478.19583543 26.12890625 477.22875977 C26.79664063 476.8459082 27.464375 476.46305664 28.15234375 476.06860352 C28.15234375 475.07860352 28.15234375 474.08860352 28.15234375 473.06860352 C27.57484375 473.41922852 26.99734375 473.76985352 26.40234375 474.13110352 C24.15234375 475.06860352 24.15234375 475.06860352 22.21484375 475.00610352 C20.15234375 474.06860352 20.15234375 474.06860352 18.1015625 471.66235352 C14.23518184 468.26198695 10.85189858 467.64668723 5.90234375 466.63110352 C-0.9571454 465.06134551 -7.68492086 463.34252212 -14.34765625 461.06860352 C-15.04665039 460.84374268 -15.74564453 460.61888184 -16.46582031 460.38720703 C-20.90937534 458.82713043 -23.38024334 457.09703275 -25.84765625 453.06860352 C-25.84765625 452.07860352 -25.84765625 451.08860352 -25.84765625 450.06860352 C-25.26757812 450.21297852 -24.6875 450.35735352 -24.08984375 450.50610352 C-19.5810595 451.57749779 -15.51711378 452.30806288 -10.84765625 452.06860352 C-10.51765625 451.07860352 -10.18765625 450.08860352 -9.84765625 449.06860352 C-10.89824219 448.84946289 -11.94882813 448.63032227 -13.03125 448.40454102 C-21.3444957 446.5637509 -28.15792772 444.64337729 -34.84765625 439.06860352 C-34.57953125 437.99610352 -34.31140625 436.92360352 -34.03515625 435.81860352 C-33.97328125 434.58110352 -33.91140625 433.34360352 -33.84765625 432.06860352 C-36.92435373 428.71220626 -40.75013062 426.97442939 -44.84765625 425.06860352 C-44.62078125 424.01672852 -44.39390625 422.96485352 -44.16015625 421.88110352 C-43.80717913 417.57478262 -44.43888184 416.4964748 -46.84765625 413.06860352 C-48.29446871 408.80332521 -47.87507304 404.48652119 -47.78515625 400.04125977 C-47.84390478 397.24703271 -48.20798347 394.7822154 -48.84765625 392.06860352 C-49.84925781 391.89844727 -50.85085937 391.72829102 -51.8828125 391.55297852 C-67.07841763 388.83784214 -67.07841763 388.83784214 -72.78515625 383.13110352 C-74.07638942 380.62459208 -74.07949656 378.85068727 -73.84765625 376.06860352 C-71.41377872 374.85166475 -69.42926779 374.74900455 -66.72265625 374.50610352 C-65.35753906 374.38041992 -65.35753906 374.38041992 -63.96484375 374.25219727 C-63.26617187 374.19161133 -62.5675 374.13102539 -61.84765625 374.06860352 C-61.18765625 372.08860352 -60.52765625 370.10860352 -59.84765625 368.06860352 C-60.811875 367.93583008 -61.77609375 367.80305664 -62.76953125 367.66625977 C-64.0328125 367.4896582 -65.29609375 367.31305664 -66.59765625 367.13110352 C-67.850625 366.95708008 -69.10359375 366.78305664 -70.39453125 366.60375977 C-72.94748218 366.20811013 -75.36628535 365.7641393 -77.84765625 365.06860352 C-76.74868554 362.50433853 -75.81096348 361.03514835 -73.72265625 359.13110352 C-71.63815861 357.22941508 -71.63815861 357.22941508 -71.51953125 354.66235352 C-72.03619791 350.57822655 -74.33940758 349.23106389 -77.40234375 346.71704102 C-81.27777427 344.10453034 -85.42763749 342.52684741 -89.84765625 341.06860352 C-89.51765625 339.41860352 -89.18765625 337.76860352 -88.84765625 336.06860352 C-88.10515625 336.23360352 -87.36265625 336.39860352 -86.59765625 336.56860352 C-83.65759047 337.18786047 -83.65759047 337.18786047 -79.84765625 337.06860352 C-79.51765625 335.08860352 -79.18765625 333.10860352 -78.84765625 331.06860352 C-83.82552285 328.70537392 -88.76189403 326.74402392 -94.03515625 325.13110352 C-99.01718872 323.52132802 -102.24516698 321.87123108 -105.84765625 318.06860352 C-105.84765625 317.40860352 -105.84765625 316.74860352 -105.84765625 316.06860352 C-98.91253505 313.16667337 -93.10698959 312.14651784 -85.90234375 314.77954102 C-84.20763729 315.52051657 -82.52703133 316.29350733 -80.84765625 317.06860352 C-77.37552435 317.92502938 -74.14432865 318.19690586 -70.57421875 318.20141602 C-69.08921875 318.20334961 -69.08921875 318.20334961 -67.57421875 318.20532227 C-66.55070312 318.20145508 -65.5271875 318.19758789 -64.47265625 318.19360352 C-62.94898437 318.1994043 -62.94898437 318.1994043 -61.39453125 318.20532227 C-56.10417018 318.19845167 -51.05900714 317.9934348 -45.84765625 317.06860352 C-45.51765625 316.07860352 -45.18765625 315.08860352 -44.84765625 314.06860352 C-46.16787074 311.92288245 -47.48733449 310.03726161 -49.03515625 308.06860352 C-49.43541016 307.53493164 -49.83566406 307.00125977 -50.24804688 306.45141602 C-53.86837603 301.73383961 -56.7145518 299.00581466 -62.59765625 297.88110352 C-63.79648438 297.64327148 -63.79648438 297.64327148 -65.01953125 297.40063477 C-65.6228125 297.29106445 -66.22609375 297.18149414 -66.84765625 297.06860352 C-65.09765625 293.23266602 -65.09765625 293.23266602 -62.84765625 291.75610352 C-57.52504983 290.53633954 -52.20892474 291.6282082 -46.89453125 292.61938477 C-39.78395558 293.64329996 -32.40802978 293.02651389 -25.25 292.85375977 C-18.8843775 292.77870955 -13.54057135 292.9743955 -7.61279297 295.41674805 C-5.69222681 296.24181691 -5.69222681 296.24181691 -2.84765625 296.06860352 C-2.51765625 294.74860352 -2.18765625 293.42860352 -1.84765625 292.06860352 C-2.39292969 291.92165039 -2.93820313 291.77469727 -3.5 291.62329102 C-12.21980362 289.0297084 -19.70275428 284.70800342 -24.84765625 277.06860352 C-25.74543162 274.72966241 -26.30667723 272.52759904 -26.84765625 270.06860352 C-27.73517578 269.93905273 -27.73517578 269.93905273 -28.640625 269.80688477 C-34.15250228 268.82679566 -37.31473822 267.70555844 -40.84765625 263.06860352 C-42.27788288 260.11280181 -41.8435556 259.05438792 -40.91015625 255.81860352 C-40.55953125 254.91110352 -40.20890625 254.00360352 -39.84765625 253.06860352 C-42.68665804 249.96344531 -45.34753689 247.65977221 -48.97265625 245.50610352 C-52.06974677 243.6628724 -53.71447732 241.97748387 -55.84765625 239.06860352 C-58.93099212 237.31787637 -58.93099212 237.31787637 -61.84765625 236.06860352 C-61.33968616 231.75085772 -60.65082846 228.03558237 -58.84765625 224.06860352 C-58.18765625 224.06860352 -57.52765625 224.06860352 -56.84765625 224.06860352 C-55.85765625 227.53360352 -55.85765625 227.53360352 -54.84765625 231.06860352 C-54.04328125 230.57360352 -53.23890625 230.07860352 -52.41015625 229.56860352 C-48.09659249 227.75236614 -44.47083696 227.22555292 -39.84765625 228.06860352 C-37.78515625 229.94360352 -37.78515625 229.94360352 -36.84765625 232.06860352 C-36.84765625 232.72860352 -36.84765625 233.38860352 -36.84765625 234.06860352 C-33.92774716 233.14036081 -31.01201567 232.20148238 -28.09765625 231.25610352 C-27.27265625 230.99506836 -26.44765625 230.7340332 -25.59765625 230.46508789 C-19.92225523 228.61142869 -16.08583545 227.32385848 -13.09765625 221.88110352 C-12.68515625 220.95297852 -12.27265625 220.02485352 -11.84765625 219.06860352 C-8.93248333 220.14261459 -7.06955449 220.84670527 -4.84765625 223.06860352 C-3.22015588 220.74536898 -3.22015588 220.74536898 -1.84765625 218.06860352 C-2.17765625 217.07860352 -2.50765625 216.08860352 -2.84765625 215.06860352 C-5.56083669 214.18777729 -8.13649142 213.48984123 -10.91015625 212.88110352 C-11.66876953 212.70385742 -12.42738281 212.52661133 -13.20898438 212.34399414 C-15.08587322 211.90723384 -16.96645785 211.48641195 -18.84765625 211.06860352 C-16.11011448 207.29231072 -11.94968515 206.84390607 -7.66015625 205.88110352 C-6.91056641 205.70385742 -6.16097656 205.52661133 -5.38867188 205.34399414 C-3.54390806 204.90924088 -1.69605559 204.48763075 0.15234375 204.06860352 C0.38271145 198.24359159 -0.57293777 195.79875243 -3.84765625 191.06860352 C-8.05789849 188.00012188 -13.56676709 188.68010452 -18.56054688 188.59008789 C-23.24695385 188.42109696 -25.87144171 187.73293775 -29.84765625 185.06860352 C-32.49820796 184.29962832 -32.49820796 184.29962832 -35.16015625 183.88110352 C-36.04316406 183.72254883 -36.92617187 183.56399414 -37.8359375 183.40063477 C-38.49980469 183.29106445 -39.16367188 183.18149414 -39.84765625 183.06860352 C-40.47265625 181.19360352 -40.47265625 181.19360352 -40.84765625 179.06860352 C-40.18765625 178.40860352 -39.52765625 177.74860352 -38.84765625 177.06860352 C-35.95021898 177.35834724 -33.17634637 177.99601565 -30.3359375 178.62329102 C-29.01142578 178.9055957 -29.01142578 178.9055957 -27.66015625 179.19360352 C-26.82097656 179.38180664 -25.98179687 179.57000977 -25.1171875 179.76391602 C-22.68736006 180.25941893 -22.68736006 180.25941893 -19.84765625 179.06860352 C-17.36670676 174.10670453 -19.09984927 167.39672822 -19.84765625 162.06860352 C-10.16275387 158.25920858 -10.16275387 158.25920858 -4.84765625 160.06860352 C-3.69142727 160.84500849 -2.54674606 161.63872232 -1.41015625 162.44360352 C6.12431998 167.46173923 16.32870803 168.2843681 25.15234375 168.06860352 C25.36426596 162.87650948 24.74361265 158.94186452 23.15234375 154.06860352 C22.53746094 154.1755957 21.92257813 154.28258789 21.2890625 154.39282227 C20.48082031 154.51270508 19.67257813 154.63258789 18.83984375 154.75610352 C17.63908203 154.9475293 17.63908203 154.9475293 16.4140625 155.14282227 C14.15234375 155.06860352 14.15234375 155.06860352 12.34375 153.74047852 C11.15234375 152.06860352 11.15234375 152.06860352 11.40234375 149.63110352 C11.64984375 148.78547852 11.89734375 147.93985352 12.15234375 147.06860352 C12.48964384 145.73626815 12.8236791 144.40309534 13.15234375 143.06860352 C12.62084717 142.90932373 12.08935059 142.75004395 11.54174805 142.5859375 C5.36707968 140.64326249 -0.25547964 138.02222699 -6.03515625 135.13110352 C-15.08915602 130.70037533 -24.2842175 126.75800682 -33.66015625 123.06860352 C-34.29186737 122.81986481 -34.92357849 122.5711261 -35.57443237 122.31484985 C-36.85229586 121.81184351 -38.13016349 121.30884769 -39.40803528 120.80586243 C-40.03908676 120.55741074 -40.67013824 120.30895905 -41.3203125 120.05297852 C-41.94963181 119.80537277 -42.57895111 119.55776703 -43.2273407 119.30265808 C-49.72476361 116.73788726 -56.16685476 114.04588662 -62.59765625 111.31860352 C-63.67217041 110.86316162 -64.74668457 110.40771973 -65.85375977 109.93847656 C-72.68136069 107.02868989 -79.44626852 103.99708819 -86.20141602 100.92407227 C-93.0998135 97.84646021 -100.18782802 95.31599123 -107.32714844 92.85693359 C-112.54124299 91.03410837 -117.14604545 88.97575547 -121.84765625 86.06860352 C-119.84765625 83.06860352 -119.84765625 83.06860352 -116.72265625 82.38110352 C-115.77390625 82.27797852 -114.82515625 82.17485352 -113.84765625 82.06860352 C-114.23953125 80.83110352 -114.63140625 79.59360352 -115.03515625 78.31860352 C-115.25558594 77.62250977 -115.47601563 76.92641602 -115.703125 76.20922852 C-117.57203858 72.71378605 -120.06365635 70.72594901 -123.7956543 69.35083008 C-126.05163109 68.69745557 -128.31507679 68.12169189 -130.59765625 67.56860352 C-137.0129522 65.91210508 -142.89686689 64.0439982 -148.84765625 61.06860352 C-148.84765625 60.40860352 -148.84765625 59.74860352 -148.84765625 59.06860352 C-144.88765625 59.06860352 -140.92765625 59.06860352 -136.84765625 59.06860352 C-135.720233 54.47782909 -135.720233 54.47782909 -135.97265625 51.38110352 C-135.93140625 50.61797852 -135.89015625 49.85485352 -135.84765625 49.06860352 C-132.69063969 46.96392581 -132.20167007 46.78635438 -128.66015625 47.13110352 C-127.94472656 47.18395508 -127.22929688 47.23680664 -126.4921875 47.29125977 C-123.91941017 48.04751189 -122.37116029 48.93852217 -120.15234375 50.39672852 C-115.71780479 53.28751014 -111.14319506 55.02954153 -106.16015625 56.75610352 C-104.51025153 57.34287897 -102.86050708 57.93010532 -101.2109375 58.51782227 C-100.07325928 58.91880127 -100.07325928 58.91880127 -98.91259766 59.32788086 C-96.53234792 60.18170892 -94.18448939 61.10245865 -91.84765625 62.06860352 C-91.95078125 60.81047852 -92.05390625 59.55235352 -92.16015625 58.25610352 C-92.21816406 57.5484082 -92.27617188 56.84071289 -92.3359375 56.11157227 C-92.97774417 53.54924486 -93.72138569 52.62406319 -95.84765625 51.06860352 C-98.08707908 50.53165957 -98.08707908 50.53165957 -100.47265625 50.44360352 C-104.76432292 50.15193685 -104.76432292 50.15193685 -105.84765625 49.06860352 C-105.45906266 45.57126124 -104.96169538 42.41072091 -103.84765625 39.06860352 C-104.72164062 38.79918945 -105.595625 38.52977539 -106.49609375 38.25219727 C-117.5091763 34.36296182 -125.67508032 27.11070291 -133.84765625 19.06860352 C-134.78738281 18.17399414 -135.72710937 17.27938477 -136.6953125 16.35766602 C-138.84765625 14.06860352 -138.84765625 14.06860352 -138.84765625 12.06860352 C-127.59270968 12.81150428 -117.38029403 15.84338017 -106.68603516 19.32446289 C-105.05867432 19.85136719 -105.05867432 19.85136719 -103.3984375 20.38891602 C-101.93917847 20.87255615 -101.93917847 20.87255615 -100.45043945 21.3659668 C-97.65335572 22.2423543 -97.65335572 22.2423543 -93.84765625 22.06860352 C-95.39453125 21.41891602 -95.39453125 21.41891602 -96.97265625 20.75610352 C-106.07385732 16.84240245 -106.07385732 16.84240245 -108.84765625 14.06860352 C-108.97265625 10.44360352 -108.97265625 10.44360352 -108.84765625 7.06860352 C-102.90759042 5.35474846 -98.57425907 7.08371971 -92.97265625 9.06860352 C-91.56947144 9.55018921 -91.56947144 9.55018921 -90.13793945 10.04150391 C-83.99910931 12.18991083 -78.07322961 14.63830256 -72.17407227 17.36694336 C-65.11257598 20.55486167 -57.75037402 22.84685488 -50.3581543 25.140625 C-44.7875681 26.91125747 -39.87393011 28.9266005 -34.89819336 32.01342773 C-32.56691508 33.21306873 -30.42669084 33.66069355 -27.84765625 34.06860352 C-36.47594269 24.2502086 -53.3860214 19.59608681 -65.20654297 14.46166992 C-65.83403442 14.18633423 -66.46152588 13.91099854 -67.10803223 13.62731934 C-68.83996832 12.867491 -70.57493251 12.11457582 -72.31005859 11.36206055 C-74.84765625 10.06860352 -74.84765625 10.06860352 -75.84765625 8.06860352 C-75.20699219 7.99383789 -74.56632812 7.91907227 -73.90625 7.84204102 C-67.48226057 6.86551803 -63.07660119 5.15109697 -58.84765625 0.06860352 C-58.51765625 -0.92139648 -58.18765625 -1.91139648 -57.84765625 -2.93139648 C-58.59015625 -3.17889648 -59.33265625 -3.42639648 -60.09765625 -3.68139648 C-63.04889687 -5.02286949 -64.69580599 -6.54045175 -66.84765625 -8.93139648 C-59.96122792 -7.53292181 -53.42938928 -5.58124871 -46.78515625 -3.30639648 C-45.82416016 -2.98155273 -44.86316406 -2.65670898 -43.87304688 -2.32202148 C-41.52984224 -1.52929554 -39.18854571 -0.73093316 -36.84765625 0.06860352 C-41.46765625 -2.24139648 -46.08765625 -4.55139648 -50.84765625 -6.93139648 C-36.73731707 -16.33828927 -13.1710823 -6.83676501 0 0 Z M-9.84765625 11.06860352 C-5.14328221 16.44952633 3.15517458 19.50126548 10.15234375 20.06860352 C7.47600812 16.79206026 3.95906363 15.46073625 0.15234375 13.88110352 C-0.47671875 13.6084668 -1.10578125 13.33583008 -1.75390625 13.05493164 C-4.61972345 11.84363814 -6.70469148 11.06860352 -9.84765625 11.06860352 Z M933.15234375 935.06860352 C933.54887257 937.59222157 933.54887257 937.59222157 935.15234375 940.06860352 C937.97762998 940.99502745 940.31070584 941.54195757 943.21484375 941.94360352 C943.98111084 942.06453369 944.74737793 942.18546387 945.53686523 942.31005859 C950.9583288 943.09342071 955.75214292 943.14864368 961.15234375 942.06860352 C954.71688419 936.72654728 940.85186308 929.93559063 933.15234375 935.06860352 Z M656.15234375 1037.06860352 C660.07977867 1039.68689346 664.09464194 1040.77826653 668.58984375 1042.13110352 C669.93224121 1042.53643311 669.93224121 1042.53643311 671.30175781 1042.94995117 C677.95930842 1044.88522978 684.19077538 1046.04030446 691.15234375 1046.06860352 C681.14232633 1039.39525857 668.016102 1036.69197627 656.15234375 1037.06860352 Z " fill="#0F62FE" transform="translate(160.84765625,95.931396484375)"/>
<path d="M0 0 C2.90195791 0.66481218 5.76177576 1.43554929 8.625 2.25 C9.36234375 2.44207031 10.0996875 2.63414062 10.859375 2.83203125 C15.8410766 4.25154837 18.48550315 6.04540515 22 10 C27.72773689 13.56632674 33.64705298 14.98442751 40.15356445 16.50244141 C44.43539537 17.52665018 47.97570833 18.78267281 51.7734375 20.94921875 C54.29321164 22.13837532 56.86565468 22.88962902 59.5402832 23.65380859 C71.92407522 27.19534977 81.69525371 33.14367599 92.0078125 40.83984375 C95.68291164 43.49301584 99.4359063 45.98964882 103.25 48.4375 C103.91177246 48.87497559 104.57354492 49.31245117 105.25537109 49.76318359 C110.86963987 53.31696366 115.84750553 54.32047988 122.5 53.6875 C126.51010686 53.64947891 126.51010686 53.64947891 128.57299805 55.12548828 C129.06840088 55.62290527 129.56380371 56.12032227 130.07421875 56.6328125 C134.62754772 60.78027201 139.87375473 63.36992284 145.3125 66.1875 C147.29134557 67.21578614 149.26679178 68.25064852 151.23828125 69.29296875 C152.10493408 69.7418042 152.97158691 70.19063965 153.86450195 70.65307617 C156 72 156 72 158 75 C153.32115844 77.63716524 149.26648538 77.80348598 144 77 C138.48559807 74.9904475 133.51690373 71.9534595 128.546875 68.8671875 C114.37710848 60.13027356 99.23165721 53.62929791 84 47 C83.37299194 46.72675903 82.74598389 46.45351807 82.09997559 46.17199707 C74.49128597 42.8586243 66.86251271 39.59465961 59.21826172 36.36425781 C56.22507457 35.09541167 53.23885695 33.81151031 50.25390625 32.5234375 C33.65568368 25.41979001 16.71735656 19.25312594 -0.25263977 13.10580444 C-3.86060902 11.79604235 -7.4467072 10.45198555 -11 9 C-11.31991247 5.48096286 -11.37169764 3.57984832 -9.4375 0.5625 C-5.95813338 -1.66786322 -4.02150706 -0.76388426 0 0 Z " fill="#0F62FE" transform="translate(1041,402)"/>
<path d="M0 0 C3.1175106 1.96538712 5.45535336 4.03702298 7.875 6.8125 C7.875 7.4725 7.875 8.1325 7.875 8.8125 C8.65875 8.4825 9.4425 8.1525 10.25 7.8125 C14.90786451 6.52757186 19.08049015 6.07188466 23.875 6.8125 C28.69478697 9.61673969 30.64394388 12.6596044 32.4296875 17.75 C32.94749248 20.14825462 32.95144755 22.36617839 32.875 24.8125 C32.05902344 24.4 31.24304688 23.9875 30.40234375 23.5625 C22.46474213 19.69302718 14.50086142 16.55413393 6.125 13.75 C-1.781432 11.09954107 -9.08295469 8.35797668 -16.125 3.8125 C-15.125 0.8125 -15.125 0.8125 -13 -0.375 C-8.28586623 -1.7072552 -4.60024163 -1.74809182 0 0 Z " fill="#0F62FE" transform="translate(992.125,384.1875)"/>
<path d="M0 0 C2.41144161 -0.34550641 2.41144161 -0.34550641 5 -1 C6.89351735 -1.11261583 8.79068086 -1.17456126 10.6875 -1.1875 C12.11642578 -1.20876953 12.11642578 -1.20876953 13.57421875 -1.23046875 C16 -1 16 -1 18 1 C17.625 3.625 17.625 3.625 17 6 C10.41345376 8.81598716 5.03433812 9.58687089 -2 8 C-3.6394289 7.24334051 -5.27886344 6.48577347 -6.8984375 5.6875 C-9.879423 4.71230772 -12.74822825 4.66069063 -15.875 4.5 C-21.48304469 4.19540971 -27.02965697 3.84176346 -32 1 C-33.73828125 -1.10546875 -33.73828125 -1.10546875 -35 -3 C-10.29463909 -6.13718869 -10.29463909 -6.13718869 0 0 Z " fill="#0F62FE" transform="translate(1143,793)"/>
<path d="M0 0 C21.10946888 0.88209596 21.10946888 0.88209596 27.125 6.5625 C29 9 29 9 29 11 C23.03115793 12.98961402 18.57906908 12.55707943 13 9.875 C8.36372464 7.3630861 3.96040859 4.49577965 0 1 C0 0.67 0 0.34 0 0 Z " fill="#0F62FE" transform="translate(432,1063)"/>
<path d="M0 0 C12.76590735 0.53080696 24.89249515 3.62298545 36 10 C36 10.33 36 10.66 36 11 C21.90388389 12.24107109 12.50516962 10.49848529 1 2 C0.67 1.34 0.34 0.68 0 0 Z " fill="#0F62FE" transform="translate(786,1180)"/>
<path d="M0 0 C2.23174963 0.77188333 3.52498227 1.71321335 5.328125 3.21875 C8.06089257 5.28599444 9.91207311 6.03634922 13.328125 6.28125 C17.078125 6.71875 17.078125 6.71875 19.078125 8.65625 C20.078125 10.71875 20.078125 10.71875 20.078125 12.71875 C13.47090097 16.11164883 13.47090097 16.11164883 9.91796875 15.109375 C7.68777154 13.94293668 5.65045695 12.64635646 3.578125 11.21875 C2.85109375 10.77015625 2.1240625 10.3215625 1.375 9.859375 C-0.574238 8.58430954 -2.2910434 7.38210531 -3.921875 5.71875 C-4.390625 2.875 -4.390625 2.875 -3.921875 0.71875 C-1.921875 -0.28125 -1.921875 -0.28125 0 0 Z " fill="#0F62FE" transform="translate(897.921875,347.28125)"/>
<path d="M0 0 C6.61412488 0.55950301 12.60045848 1.79967253 18.9375 3.75 C19.81051758 4.01441895 20.68353516 4.27883789 21.58300781 4.55126953 C27.70765858 6.46136498 33.46696775 8.70930187 39 12 C39 12.33 39 12.66 39 13 C33.7755755 13.2289052 29.42191806 12.51522965 24.5 10.875 C23.81800537 10.65416748 23.13601074 10.43333496 22.43334961 10.20581055 C17.42252433 8.55050517 12.4761381 6.73621317 7.5625 4.8125 C6.91796875 4.56290527 6.2734375 4.31331055 5.609375 4.05615234 C1.12190552 2.24381105 1.12190552 2.24381105 0 0 Z " fill="#0F62FE" transform="translate(1168,784)"/>
<path d="M0 0 C21.04824976 4.57237465 21.04824976 4.57237465 26 12 C17.47449202 12.98371246 10.79001905 9.36547807 3.8984375 4.5234375 C2.25 3.1875 2.25 3.1875 0 1 C0 0.67 0 0.34 0 0 Z " fill="#0F62FE" transform="translate(72,87)"/>
<path d="M0 0 C4.32530574 -0.55049346 6.75800359 -0.76356944 10.53515625 1.55859375 C12.75742115 3.30893552 14.90535837 5.09930667 17 7 C16.67 7.66 16.34 8.32 16 9 C9.11509775 9.57374185 4.97332123 8.4753869 -1 5 C-0.67 3.35 -0.34 1.7 0 0 Z " fill="#0F62FE" transform="translate(525,1092)"/>
</svg>
